<?xml version="1.0" encoding="UTF-8"?>
<svg xmlns="http://www.w3.org/2000/svg" version="1.1" viewBox="0 0 4108.4 2905" width="8216.8" height="5810">
  <defs>
    <style>
      .cls-1 {
        fill: #231f20;
      }
    </style>
  </defs>
  <!-- Generator: Adobe Illustrator 28.7.1, SVG Export Plug-In . SVG Version: 1.2.0 Build 142)  -->
  <g>
    <g id="Layer_1">
      <g>
        <g>
          <path class="cls-1" d="M1704.7,847.4v262.7c0,28.8,7.5,50.8,22.5,66,15,15.2,36.1,22.8,63.2,22.8s48.9-7.6,63.9-22.8c15-15.2,22.5-37.2,22.5-66v-262.7h85.8v262.1c0,36.1-7.8,66.6-23.4,91.5-15.6,24.9-36.5,43.7-62.6,56.3-26.2,12.6-55.2,18.9-87.3,18.9s-60.3-6.3-86.1-18.9c-25.8-12.6-46.1-31.3-61.1-56.3-15-24.9-22.5-55.4-22.5-91.5v-262.1h85.1Z"/>
          <path class="cls-1" d="M2407.7,1271.9h-85.1l-192.8-291.3v291.3h-85.1v-425.1h85.1l192.8,291.9v-291.9h85.1v425.1Z"/>
          <path class="cls-1" d="M2710.6,1271.9l-93.7-165.4h-40.1v165.4h-85.1v-424.5h159.3c32.8,0,60.8,5.8,83.9,17.3,23.1,11.6,40.4,27.2,52,46.8,11.6,19.7,17.3,41.7,17.3,66s-8.1,53.2-24.3,75.7c-16.2,22.5-40.3,38-72.4,46.5l101.6,172.1h-98.5ZM2576.8,1042.7h71.2c23.1,0,40.3-5.6,51.7-16.7,11.3-11.1,17-26.7,17-46.5s-5.7-34.6-17-45.3c-11.4-10.7-28.6-16.1-51.7-16.1h-71.2v124.7Z"/>
          <path class="cls-1" d="M2966.6,916.2v106.4h142.9v67.5h-142.9v112.5h161.2v69.3h-246.3v-425.1h246.3v69.3h-161.2Z"/>
          <path class="cls-1" d="M3465.3,1191h-169.1l-28,80.9h-89.4l152.6-425.1h99.1l152.6,425.1h-90l-28-80.9ZM3442.2,1122.9l-61.4-177.6-61.4,177.6h122.8Z"/>
          <path class="cls-1" d="M3906.5,873.6c33.8,17.4,60,42.3,78.5,74.5,18.4,32.2,27.7,69.6,27.7,112.2s-9.2,79.8-27.7,111.6c-18.5,31.8-44.6,56.5-78.5,73.9-33.9,17.4-73.1,26.2-117.7,26.2h-148.4v-424.5h148.4c44.6,0,83.8,8.7,117.7,26.2ZM3889.2,1163.1c24.3-24.3,36.5-58.6,36.5-102.8s-12.2-78.8-36.5-103.7c-24.3-24.9-58.8-37.4-103.4-37.4h-60.2v280.4h60.2c44.6,0,79.1-12.2,103.4-36.5Z"/>
        </g>
        <g>
          <path class="cls-1" d="M2107.8,1646.8c-17.9,33.1-45.9,59.7-84,79.9-38.1,20.2-86.2,30.4-144.2,30.4h-118.4v271.2h-141.7v-706.3h260.1c54.6,0,101.2,9.5,139.6,28.3,38.5,18.9,67.3,44.9,86.5,77.9,19.2,33.1,28.8,70.5,28.8,112.3s-8.9,73.2-26.8,106.2ZM1960.6,1616c18.9-17.9,28.3-43,28.3-75.4,0-68.8-38.5-103.2-115.4-103.2h-112.3v205.4h112.3c39.1,0,68.1-8.9,87-26.8Z"/>
          <path class="cls-1" d="M2376.4,1322v706.3h-141.7v-706.3h141.7Z"/>
          <path class="cls-1" d="M2657.7,1916h232.7v112.3h-374.4v-706.3h141.7v594Z"/>
          <path class="cls-1" d="M3122.2,1436.4v177.1h237.8v112.3h-237.8v187.2h268.1v115.4h-409.8v-707.3h409.8v115.4h-268.1Z"/>
          <path class="cls-1" d="M3629.6,2010.1c-39.5-16.9-70.7-41.1-93.6-72.9-22.9-31.7-34.7-69.1-35.4-112.3h151.8c2,29,12.3,52,30.9,68.8,18.5,16.9,44,25.3,76.4,25.3s59-7.9,77.9-23.8c18.9-15.8,28.3-36.6,28.3-62.2s-6.4-38.1-19.2-51.6c-12.8-13.5-28.8-24.1-48.1-31.9-19.2-7.7-45.7-16.4-79.4-25.8-45.9-13.5-83.1-26.8-111.8-40-28.7-13.2-53.3-33-73.9-59.7-20.6-26.6-30.9-62.2-30.9-106.8s10.5-78.2,31.4-109.3c20.9-31,50.2-54.8,88-71.3,37.8-16.5,80.9-24.8,129.5-24.8,72.9,0,132.1,17.7,177.6,53.1,45.5,35.4,70.7,84.8,75.4,148.2h-155.8c-1.4-24.3-11.6-44.3-30.9-60.2-19.2-15.8-44.7-23.8-76.4-23.8s-49.8,7.1-66.3,21.3c-16.5,14.2-24.8,34.7-24.8,61.7s6.2,34.6,18.7,47.1c12.5,12.5,28,22.6,46.5,30.4,18.5,7.8,44.7,16.7,78.4,26.8,45.9,13.5,83.3,27,112.3,40.5,29,13.5,54,33.7,74.9,60.7,20.9,27,31.4,62.4,31.4,106.2s-9.8,72.9-29.3,105.2c-19.6,32.4-48.2,58.2-86,77.4-37.8,19.2-82.6,28.8-134.6,28.8s-93.6-8.4-133.1-25.3Z"/>
        </g>
      </g>
      <path d="M198.3,1418.7c5.8-7.8,13.9-12.8,22.8-15.5,9.9-3,20.3-3.2,30.1.4,7.9,2.9,15.4,6.9,23.1,10.3,7.6,3.3,15.3,6.5,22.9,9.9,10.6,4.7,21.1,9.5,31.7,14.3,8.5,3.8,17,7.6,25.6,11.4,9.8,4.3,19.5,8.7,29.3,13,10.7,4.6,21.4,9.1,32.1,13.8,11.2,4.9,22.2,10.1,33.4,15.1,7.5,3.3,15.3,6.3,22.8,9.7,14.4,6.4,28.7,13,43.1,19.4,7.5,3.3,15.3,6.2,22.8,9.6,12.9,5.8,25.6,12.1,38.5,17.9,10.7,4.8,21.9,8.6,32.3,14,13.8,7,28.3,12,43.2,14.6,12.4,2.1,25,3.9,38.1,2.3,14.4-1.7,28.4-3.8,42-8.6,9.3-3.3,18.5-6.8,27.5-10.7,13.6-5.9,27-12.3,40.5-18.4,11.6-5.3,23.2-10.5,34.9-15.6,16.8-7.4,33.7-14.7,50.6-21.9,4.4-1.9,8.8-3.5,13.1-5.5,10.4-4.7,20.6-9.6,31-14.3,10.7-4.9,21.5-9.5,32.3-14.3,11.5-5,23-9.9,34.4-14.9,10.2-4.4,20.4-8.9,30.5-13.4,10.6-4.7,21-9.6,31.6-14.3,8.1-3.5,16.3-6.7,24.4-10.2,11.3-4.9,22.4-10.2,33.7-15.1,7.6-3.3,15.3-6.3,22.8-9.7,10.5-4.7,20.9-9.8,31.4-14.6,7.9-3.5,16-6.5,23.9-10,19-8.5,37.8-17.6,57-25.8,20.8-9,29.7-32.1,19.7-53-2.4-5.1-6.7-10.4-11.6-13-14-7.3-28.4-14-43.2-19.5-14.6-5.4-30.2-7.1-45.9-6.2-8.4.5-17,.3-25.1,2.3-10,2.4-19.7,6.5-29.4,10.1-7.9,3-15.7,6.3-23.4,9.7-11.7,5.1-23.3,10.5-35,15.7-7.3,3.2-14.7,6.1-21.9,9.3-11.4,5.1-22.7,10.3-34,15.4-7.5,3.3-15.2,6.3-22.8,9.7-10.4,4.7-20.6,9.7-31.1,14.3-10.3,4.6-20.8,8.9-31.1,13.5-13.5,6-26.8,12.3-40.3,18.2-11.3,5-22.8,9.5-34,14.4-13.7,6.1-27.1,12.8-40.8,18.6-12.2,5.1-24.6,9.9-37.3,13.7-14.2,4.3-28.7,8.6-43.3,10.5-35.1,4.8-70.3,3.5-105-4-6.4-1.4-12.8-3-18.9-5.2-11.9-4.4-23.6-9.2-35.3-14-8.3-3.4-16.6-6.9-24.9-10.5-13.9-6.1-27.6-12.4-41.5-18.5-10.5-4.6-21-9.1-31.5-13.7-8-3.6-16-7.4-24-10.9-10.3-4.5-20.8-8.8-31.1-13.3-11.4-5-22.6-10.3-34-15.3-7.6-3.3-15.3-6.4-22.8-9.7-10.8-4.8-21.4-9.8-32.2-14.5-8.1-3.5-16.3-6.6-24.3-10.2-10.1-4.5-20-9.4-30-14-11.5-5.3-23.2-10.1-34.4-16-15.7-8.2-26.9-21-34.8-36.6-7-13.8-10.4-28.7-9.6-44.4.5-10.5,4.3-19.4,10.9-27.5,6.8-8.4,15.3-13.3,25.6-16.4,8.4-2.6,16.3-3,24.4,0,8.4,3.1,16.8,6.3,25.1,9.7,7.2,2.9,14.3,6.1,21.4,9.2,11.4,5.1,22.7,10.3,34.2,15.3,7.4,3.3,15,6.2,22.4,9.5,13.9,6.2,27.8,12.7,41.7,18.9,10.3,4.6,20.7,9,31,13.6,11.1,4.9,22.2,9.9,33.3,14.8,7.9,3.5,15.9,6.8,23.8,10.4,10.1,4.5,20.1,9.3,30.2,13.7,8.2,3.6,16.7,6.8,24.9,10.5,13.1,5.9,26.1,12.1,39.2,17.9,14.3,6.3,28.9,12.1,43.1,18.6,17.7,8,36.3,12,55.5,13.4,8.6.6,17.4-1.1,26.1-1.6,11.6-.6,22.7-3.7,33.4-7.9,14.7-5.9,29.3-12,43.9-18.2,14.9-6.4,29.6-13.1,44.4-19.7,8.4-3.7,16.7-7.6,25-11.3,9.5-4.2,18.9-8.4,28.5-12.5,8.3-3.6,16.7-6.8,24.9-10.4,10.5-4.6,20.7-9.7,31.2-14.3,8.2-3.6,16.7-6.7,25-10.4,13.5-6,26.7-12.4,40.2-18.4,10.8-4.8,21.8-9,32.5-13.9,13-5.8,25.7-12,38.7-17.9,15.5-7,31.1-13.8,46.6-20.6,15.4-6.8,30.8-13.5,46.2-20.3,15.5-6.8,30.9-13.7,46.3-20.5,15.6-6.9,31-14.2,46.8-20.7,14.1-5.7,20.3-17,22.2-30.7.4-3,.4-6,.1-8.9,0,0,0-.1,0-.2,0-.1,0-.3,0-.4-.4-3.7-1.4-7.3-2.9-10.6,0,.2,0,.3.1.5,0,.2,0,.4.1.7-2.3-5.1-5.8-9.6-10.5-13.4-4.9-4-11.3-6.3-17.1-9-14.7-6.7-29.4-13.4-44.1-19.9-7.2-3.2-14.6-6-21.8-9.2-14.4-6.4-28.6-13.1-43-19.5-9.9-4.4-20-8.4-29.9-12.8-14.4-6.4-28.7-13-43.1-19.4-7.5-3.4-15.3-6.3-22.8-9.6-10.8-4.8-21.6-10-32.4-14.9-7.4-3.3-15-6.2-22.4-9.5-13.7-6.2-27.4-12.6-41.1-18.7-10.5-4.7-21.1-8.9-31.6-13.6-11.5-5.1-23-10.5-34.5-15.7-7.6-3.4-15.3-6.4-22.8-9.7-10.8-4.7-21.4-9.6-32.1-14.5-8-3.6-16-7.2-24-10.8-9.9-4.4-19.8-8.9-29.8-13.2-8.2-3.6-16.9-6.3-24.8-10.5-16.3-8.5-33.7-12.2-51.7-13.8-14.2-1.3-28.5-1-42.5,2.5-8.2,2.1-16.8,3.3-24.6,6.5-13.3,5.3-26,12-39.1,17.8-13.8,6.1-27.8,11.9-41.6,17.9-4.6,2-9.1,4.4-13.7,6.5-6.7,3.1-13.5,6.1-20.3,9-8.1,3.5-16.3,6.6-24.4,10.2-13.8,6.1-27.4,12.6-41.2,18.7-10.5,4.7-21.1,8.9-31.5,13.6-13.4,6-26.7,12.5-40.1,18.4-11.3,5-22.8,9.3-34.1,14.3-17.2,7.6-34.1,15.6-51.3,23.2-7.5,3.4-15.3,6.2-22.8,9.6-10.9,4.8-21.7,9.9-32.5,14.8-7.9,3.5-15.9,6.6-23.8,10.1-9.9,4.4-19.6,9.3-29.5,13.7-11.7,5.2-23.7,9.8-35.4,15-13.2,5.9-26.3,12.3-39.4,18.5-8,3.8-13.8,10-16.3,18.2-2.2,7.2-3.1,14.9-3.3,22.5-.5,15.9-.1,31.9-.1,47.8,0,252.1,0,504.2.1,756.3,0,.8,0,1.5,0,2.3,0,0,0,0,0,.1-.7,6.3.3,12.4,2.7,17.8,0,.2.1.3.2.5,2.3,4.9,5.7,9.3,10.3,13,4.9,4,11.3,6.3,17.1,9,14.7,6.7,29.4,13.4,44.1,19.9,7.2,3.2,14.6,6,21.8,9.2,14.4,6.4,28.6,13.1,43,19.5,9.9,4.4,20,8.4,29.9,12.8,14.4,6.4,28.7,13,43.1,19.4,7.5,3.4,15.3,6.3,22.8,9.6,10.8,4.8,21.6,10,32.4,14.9,7.4,3.3,15,6.2,22.4,9.5,13.7,6.2,27.4,12.6,41.1,18.7,10.5,4.7,21.1,8.9,31.6,13.6,11.5,5.1,23,10.5,34.5,15.7,7.6,3.4,15.3,6.4,22.8,9.7,10.8,4.7,21.4,9.6,32.1,14.5,8,3.6,16,7.2,24,10.8,9.9,4.4,19.8,8.9,29.8,13.2,8.2,3.6,16.9,6.3,24.8,10.5,16.3,8.5,33.7,12.2,51.7,13.8,14.2,1.3,28.5,1,42.5-2.5,8.2-2.1,16.8-3.3,24.6-6.5,13.3-5.3,26-12,39.1-17.8,13.8-6.1,27.8-11.9,41.6-17.9,4.6-2,9.1-4.4,13.7-6.5,6.7-3.1,13.5-6.1,20.3-9,8.1-3.5,16.3-6.6,24.4-10.2,13.8-6.1,27.4-12.6,41.2-18.7,10.5-4.7,21.1-8.9,31.5-13.6,13.4-6,26.7-12.5,40.1-18.4,11.3-5,22.8-9.3,34.1-14.3,17.2-7.6,34.1-15.6,51.3-23.3,7.5-3.4,15.3-6.2,22.8-9.6,10.9-4.8,21.7-9.9,32.5-14.8,7.9-3.5,15.9-6.6,23.8-10.1,9.9-4.4,19.6-9.3,29.5-13.7,11.7-5.2,23.7-9.8,35.4-15,13.2-5.9,26.3-12.3,39.4-18.5,8-3.8,13.8-10,16.3-18.2,1.6-5.4,2.5-11.1,3-16.7,0,0,0,0,0-.1-.6-4.9-2.1-9.8-4.2-14.8-1-2.3-3.1-4.2-4.8-6.1-7.8-8.7-18.6-12.1-28.8-16.4-8.7-3.7-17.6-7.4-26.8-9.4-12.8-2.8-25.9-5.7-38.9-5.5-13.3.3-26.6,3.7-39.7,6.9-9.2,2.2-18,6-26.7,9.8-17,7.4-33.9,15.4-50.8,23-7.4,3.3-14.9,6.2-22.3,9.5-10,4.5-19.9,9.4-30,13.9-8.2,3.6-16.6,6.8-24.8,10.4-11.6,5.1-23,10.5-34.6,15.6-7.2,3.2-14.6,5.9-21.8,9.1-11.5,5.1-22.9,10.5-34.4,15.6-7.2,3.2-14.7,6-21.9,9.2-13.5,6.1-27,12.5-40.5,18.6-10.4,4.7-20.9,9.3-31.5,13.5-12.4,5-24.7,10.4-37.5,14-13.5,3.8-27.4,6.8-41.3,8.1-24,2.1-48.1,2.9-72.2-1.2-14.7-2.5-29.5-4.7-43.6-9.4-9.2-3-18.3-6.2-27.2-9.9-15.1-6.3-29.9-13.2-44.9-19.7-7.4-3.2-14.9-6.1-22.2-9.4-10.7-4.8-21.2-9.8-31.9-14.5-8-3.5-16.3-6.6-24.3-10.1-10.4-4.6-20.6-9.6-31-14.3-10.4-4.7-21-9-31.5-13.6-11.2-5-22.4-10.1-33.6-15.1-7.7-3.4-15.6-6.6-23.3-10-9.9-4.4-19.7-9.2-29.6-13.5-8.2-3.6-16.7-6.7-24.9-10.3-11.7-5.1-23.4-10.6-35.1-15.8-11.8-5.3-21.6-13.3-30.1-22.9-2.4-2.8-4.6-5.6-6.7-8.6-5-7.4-8.7-15.6-11.3-24.3-1.9-6.6-3.4-13.1-4-19.5-1-12.2,1-24,9.4-35.2,6.8-9.2,15.5-16.1,27-18.5,10.9-2.2,21.7-2.4,32.2,2.8,10.7,5.2,22,9.3,33,14.1,14.9,6.5,29.7,13.3,44.6,20,.8.4,1.7.7,2.5,1.1,6.4,2.8,12.9,5.4,19.3,8.2,10.7,4.8,21.3,9.7,32,14.5,8,3.5,16.2,6.6,24.2,10.2,13.1,5.9,26,12.2,39.1,18,10.6,4.8,21.3,9.1,32,13.7,11.7,5.1,23.3,10.4,34.9,15.5,7.4,3.3,14.9,6.3,22.3,9.6,11.2,5,22.3,10.3,33.5,15.3,7.7,3.4,15.6,6.5,23.3,9.9,9.9,4.4,19.4,10,29.6,13.2,13.1,4.1,26.7,7.1,40.3,9,19.9,2.9,39.8.5,58.8-5.3,14.5-4.4,28.1-11.6,42-17.7,15.9-6.9,31.9-13.9,47.8-20.9,15.2-6.7,30.4-13.5,45.6-20.2,13.8-6,27.7-12,41.6-17.9,7.1-3,14.3-5.8,21.3-9,10.1-4.6,20.1-9.7,30.3-14.1,11.8-5.1,23.8-9.6,35.6-14.8,13.3-5.9,26.3-12.3,39.5-18.3,15.1-6.9,30.4-13.5,45.6-20.2,15.4-6.8,30.8-13.6,46.2-20.4,15.7-7,31.4-13.9,47.1-20.9,15.2-6.7,30.4-13.5,45.6-20.2,13.7-6,27.5-11.7,41-17.9,10.2-4.7,16.7-12.6,20.1-23.6,2.3-7.7,2.1-14.7-.2-22.3-3.3-11-9.8-18.7-20.3-23.1-6.8-2.9-13.7-5.5-20.2-8.9-11.9-6.3-24.5-9.9-37.7-11.4-21.2-2.4-42.4-2.4-63,4.5-5,1.7-10.2,3.1-15,5.2-17.2,7.5-34.3,15.2-51.4,23-7.8,3.5-15.5,7.3-23.3,10.9-9.9,4.5-19.9,8.9-29.9,13.2-8.2,3.5-16.6,6.7-24.8,10.3-11.2,4.9-22.4,10-33.6,15-7.3,3.2-14.6,6.2-21.8,9.5-7.3,3.3-14.5,7.1-21.9,10.3-8.2,3.6-16.6,6.7-24.8,10.3-11.4,4.9-22.6,10.1-33.9,15.1-4.2,1.9-8.5,3.6-12.7,5.5-10,4.6-19.8,9.5-29.9,13.9-8.7,3.8-17.5,7.2-26.4,10.4-13.7,4.8-27.3,10.5-41.4,13.5-15.6,3.3-31.7,5-47.7,5.8-19.6,1-39.3,1.3-58.6-3.2-12.5-3-25.2-5.4-37.6-8.8-9.6-2.7-19.1-6.2-28.4-10-11.8-4.8-23.3-10.3-34.9-15.6-7.6-3.4-15.3-6.9-22.9-10.4-10.1-4.5-20.1-9-30.3-13.4-7.9-3.4-16-6.5-23.9-9.9-11.4-5-22.7-10.2-34.1-15.2-7.4-3.3-14.9-6.2-22.3-9.5-11.4-5-22.6-10.3-34-15.4-8.1-3.7-16.3-7.4-24.4-11-7.2-3.2-14.6-6.1-21.8-9.2-7.8-3.3-15.5-6.8-23.3-10.2-13.9-6.2-27.8-12.3-41.7-18.6-9.3-4.2-19-7.7-27.4-13.2-12.8-8.3-22.9-19.3-30.5-33.1-9.3-17.1-12.6-34.8-10.4-53.9,1-8.4,5.8-14.9,10.6-21.4Z"/>
    </g>
  </g>
</svg>